<svg baseprofile="full" height="73px" version="1.1" viewbox="0 0 109 73" width="109px" xml:space="preserve" xmlns="http://www.w3.org/2000/svg" xmlns:rdkit="http://www.rdkit.org/xml" xmlns:xlink="http://www.w3.org/1999/xlink">
<path class="bond-0 atom-0 atom-1" d="M 16.4,16.2 L 28.5,23.2" style="fill:none;fill-rule:evenodd;stroke:#000000;stroke-width:1.3px;stroke-linecap:butt;stroke-linejoin:miter;stroke-opacity:1"></path>
<path class="bond-0 atom-0 atom-1" d="M 17.5,14.3 L 28.5,20.8" style="fill:none;fill-rule:evenodd;stroke:#000000;stroke-width:1.3px;stroke-linecap:butt;stroke-linejoin:miter;stroke-opacity:1"></path>
<path class="bond-1 atom-1 atom-2" d="M 28.5,23.2 L 40.7,16.2" style="fill:none;fill-rule:evenodd;stroke:#000000;stroke-width:1.3px;stroke-linecap:butt;stroke-linejoin:miter;stroke-opacity:1"></path>
<path class="bond-2 atom-2 atom-3" d="M 40.7,16.2 L 52.8,23.3" style="fill:none;fill-rule:evenodd;stroke:#000000;stroke-width:1.3px;stroke-linecap:butt;stroke-linejoin:miter;stroke-opacity:1"></path>
<path class="bond-3 atom-3 atom-4" d="M 52.8,23.3 L 64.9,16.3" style="fill:none;fill-rule:evenodd;stroke:#000000;stroke-width:1.3px;stroke-linecap:butt;stroke-linejoin:miter;stroke-opacity:1"></path>
<path class="bond-4 atom-4 atom-5" d="M 64.9,16.3 L 77.0,23.4" style="fill:none;fill-rule:evenodd;stroke:#000000;stroke-width:1.3px;stroke-linecap:butt;stroke-linejoin:miter;stroke-opacity:1"></path>
<path class="bond-4 atom-4 atom-5" d="M 64.9,18.8 L 74.9,24.6" style="fill:none;fill-rule:evenodd;stroke:#000000;stroke-width:1.3px;stroke-linecap:butt;stroke-linejoin:miter;stroke-opacity:1"></path>
<path class="bond-5 atom-5 atom-6" d="M 77.0,23.4 L 77.0,37.4" style="fill:none;fill-rule:evenodd;stroke:#000000;stroke-width:1.3px;stroke-linecap:butt;stroke-linejoin:miter;stroke-opacity:1"></path>
<path class="bond-6 atom-6 atom-7" d="M 77.0,37.4 L 84.9,42.0" style="fill:none;fill-rule:evenodd;stroke:#000000;stroke-width:1.3px;stroke-linecap:butt;stroke-linejoin:miter;stroke-opacity:1"></path>
<path class="bond-7 atom-7 atom-8" d="M 89.0,49.0 L 89.0,58.4" style="fill:none;fill-rule:evenodd;stroke:#000000;stroke-width:1.3px;stroke-linecap:butt;stroke-linejoin:miter;stroke-opacity:1"></path>
<path class="bond-8 atom-6 atom-9" d="M 77.0,37.4 L 64.8,44.3" style="fill:none;fill-rule:evenodd;stroke:#000000;stroke-width:1.3px;stroke-linecap:butt;stroke-linejoin:miter;stroke-opacity:1"></path>
<path class="bond-8 atom-6 atom-9" d="M 74.9,36.2 L 64.8,41.9" style="fill:none;fill-rule:evenodd;stroke:#000000;stroke-width:1.3px;stroke-linecap:butt;stroke-linejoin:miter;stroke-opacity:1"></path>
<path class="bond-9 atom-9 atom-10" d="M 64.8,44.3 L 52.7,37.3" style="fill:none;fill-rule:evenodd;stroke:#000000;stroke-width:1.3px;stroke-linecap:butt;stroke-linejoin:miter;stroke-opacity:1"></path>
<path class="bond-10 atom-10 atom-3" d="M 52.7,37.3 L 52.8,23.3" style="fill:none;fill-rule:evenodd;stroke:#000000;stroke-width:1.3px;stroke-linecap:butt;stroke-linejoin:miter;stroke-opacity:1"></path>
<path class="bond-10 atom-10 atom-3" d="M 54.8,36.1 L 54.9,24.5" style="fill:none;fill-rule:evenodd;stroke:#000000;stroke-width:1.3px;stroke-linecap:butt;stroke-linejoin:miter;stroke-opacity:1"></path>
<path d="M 27.9,22.8 L 28.5,23.2 L 29.1,22.9" style="fill:none;stroke:#000000;stroke-width:1.3px;stroke-linecap:butt;stroke-linejoin:miter;stroke-miterlimit:10;stroke-opacity:1;"></path>
<path d="M 40.1,16.6 L 40.7,16.2 L 41.3,16.6" style="fill:none;stroke:#000000;stroke-width:1.3px;stroke-linecap:butt;stroke-linejoin:miter;stroke-miterlimit:10;stroke-opacity:1;"></path>
<path d="M 64.3,16.7 L 64.9,16.3 L 65.5,16.7" style="fill:none;stroke:#000000;stroke-width:1.3px;stroke-linecap:butt;stroke-linejoin:miter;stroke-miterlimit:10;stroke-opacity:1;"></path>
<path d="M 76.4,23.0 L 77.0,23.4 L 77.0,24.1" style="fill:none;stroke:#000000;stroke-width:1.3px;stroke-linecap:butt;stroke-linejoin:miter;stroke-miterlimit:10;stroke-opacity:1;"></path>
<path d="M 65.4,44.0 L 64.8,44.3 L 64.2,44.0" style="fill:none;stroke:#000000;stroke-width:1.3px;stroke-linecap:butt;stroke-linejoin:miter;stroke-miterlimit:10;stroke-opacity:1;"></path>
<path d="M 53.3,37.6 L 52.7,37.3 L 52.7,36.6" style="fill:none;stroke:#000000;stroke-width:1.3px;stroke-linecap:butt;stroke-linejoin:miter;stroke-miterlimit:10;stroke-opacity:1;"></path>
<path class="atom-7" d="M 86.5 44.4
Q 86.5 43.1, 87.1 42.3
Q 87.8 41.6, 89.1 41.6
Q 90.3 41.6, 91.0 42.3
Q 91.7 43.1, 91.7 44.4
Q 91.7 45.8, 91.0 46.6
Q 90.3 47.4, 89.1 47.4
Q 87.8 47.4, 87.1 46.6
Q 86.5 45.8, 86.5 44.4
M 89.1 46.7
Q 89.9 46.7, 90.4 46.2
Q 90.9 45.6, 90.9 44.4
Q 90.9 43.3, 90.4 42.8
Q 89.9 42.2, 89.1 42.2
Q 88.2 42.2, 87.7 42.8
Q 87.3 43.3, 87.3 44.4
Q 87.3 45.6, 87.7 46.2
Q 88.2 46.7, 89.1 46.7
" fill="#000000"></path>
</svg>