<svg baseprofile="full" height="83px" version="1.1" viewbox="0 0 96 83" width="96px" xml:space="preserve" xmlns="http://www.w3.org/2000/svg" xmlns:rdkit="http://www.rdkit.org/xml" xmlns:xlink="http://www.w3.org/1999/xlink">
<path class="bond-0 atom-0 atom-1" d="M 81.6,67.1 L 67.7,59.1" style="fill:none;fill-rule:evenodd;stroke:#000000;stroke-width:1.3px;stroke-linecap:butt;stroke-linejoin:miter;stroke-opacity:1"></path>
<path class="bond-1 atom-1 atom-2" d="M 67.7,59.1 L 53.9,67.0" style="fill:none;fill-rule:evenodd;stroke:#000000;stroke-width:1.3px;stroke-linecap:butt;stroke-linejoin:miter;stroke-opacity:1"></path>
<path class="bond-2 atom-2 atom-3" d="M 53.9,67.0 L 40.0,59.0" style="fill:none;fill-rule:evenodd;stroke:#000000;stroke-width:1.3px;stroke-linecap:butt;stroke-linejoin:miter;stroke-opacity:1"></path>
<path class="bond-2 atom-2 atom-3" d="M 53.9,64.3 L 42.4,57.6" style="fill:none;fill-rule:evenodd;stroke:#000000;stroke-width:1.3px;stroke-linecap:butt;stroke-linejoin:miter;stroke-opacity:1"></path>
<path class="bond-3 atom-3 atom-4" d="M 40.0,59.0 L 40.1,43.0" style="fill:none;fill-rule:evenodd;stroke:#000000;stroke-width:1.3px;stroke-linecap:butt;stroke-linejoin:miter;stroke-opacity:1"></path>
<path class="bond-4 atom-4 atom-5" d="M 40.1,43.0 L 30.5,37.4" style="fill:none;fill-rule:evenodd;stroke:#000000;stroke-width:1.3px;stroke-linecap:butt;stroke-linejoin:miter;stroke-opacity:1"></path>
<path class="bond-5 atom-4 atom-6" d="M 40.1,43.0 L 53.9,35.0" style="fill:none;fill-rule:evenodd;stroke:#000000;stroke-width:1.3px;stroke-linecap:butt;stroke-linejoin:miter;stroke-opacity:1"></path>
<path class="bond-5 atom-4 atom-6" d="M 42.5,44.4 L 53.9,37.8" style="fill:none;fill-rule:evenodd;stroke:#000000;stroke-width:1.3px;stroke-linecap:butt;stroke-linejoin:miter;stroke-opacity:1"></path>
<path class="bond-6 atom-6 atom-7" d="M 53.9,35.0 L 54.0,24.0" style="fill:none;fill-rule:evenodd;stroke:#000000;stroke-width:1.3px;stroke-linecap:butt;stroke-linejoin:miter;stroke-opacity:1"></path>
<path class="bond-7 atom-6 atom-8" d="M 53.9,35.0 L 67.8,43.1" style="fill:none;fill-rule:evenodd;stroke:#000000;stroke-width:1.3px;stroke-linecap:butt;stroke-linejoin:miter;stroke-opacity:1"></path>
<path class="bond-8 atom-8 atom-1" d="M 67.8,43.1 L 67.7,59.1" style="fill:none;fill-rule:evenodd;stroke:#000000;stroke-width:1.3px;stroke-linecap:butt;stroke-linejoin:miter;stroke-opacity:1"></path>
<path class="bond-8 atom-8 atom-1" d="M 65.4,44.5 L 65.4,57.7" style="fill:none;fill-rule:evenodd;stroke:#000000;stroke-width:1.3px;stroke-linecap:butt;stroke-linejoin:miter;stroke-opacity:1"></path>
<path d="M 54.6,66.6 L 53.9,67.0 L 53.2,66.6" style="fill:none;stroke:#000000;stroke-width:1.3px;stroke-linecap:butt;stroke-linejoin:miter;stroke-miterlimit:10;stroke-opacity:1;"></path>
<path d="M 40.7,59.4 L 40.0,59.0 L 40.0,58.2" style="fill:none;stroke:#000000;stroke-width:1.3px;stroke-linecap:butt;stroke-linejoin:miter;stroke-miterlimit:10;stroke-opacity:1;"></path>
<path d="M 67.1,42.7 L 67.8,43.1 L 67.8,43.9" style="fill:none;stroke:#000000;stroke-width:1.3px;stroke-linecap:butt;stroke-linejoin:miter;stroke-miterlimit:10;stroke-opacity:1;"></path>
<path class="atom-5" d="M 13.9 31.8
L 14.8 31.8
L 14.8 34.5
L 18.1 34.5
L 18.1 31.8
L 18.9 31.8
L 18.9 38.2
L 18.1 38.2
L 18.1 35.2
L 14.8 35.2
L 14.8 38.2
L 13.9 38.2
L 13.9 31.8
" fill="#000000"></path>
<path class="atom-5" d="M 20.2 38.0
Q 20.3 37.6, 20.7 37.3
Q 21.1 37.1, 21.6 37.1
Q 22.2 37.1, 22.6 37.5
Q 22.9 37.8, 22.9 38.4
Q 22.9 39.0, 22.5 39.6
Q 22.0 40.2, 21.0 40.9
L 23.0 40.9
L 23.0 41.4
L 20.2 41.4
L 20.2 41.0
Q 20.9 40.4, 21.4 40.0
Q 21.9 39.6, 22.1 39.2
Q 22.3 38.8, 22.3 38.4
Q 22.3 38.0, 22.1 37.8
Q 21.9 37.6, 21.6 37.6
Q 21.2 37.6, 21.0 37.7
Q 20.8 37.9, 20.6 38.2
L 20.2 38.0
" fill="#000000"></path>
<path class="atom-5" d="M 24.8 31.8
L 26.9 35.2
Q 27.1 35.5, 27.4 36.1
Q 27.8 36.7, 27.8 36.8
L 27.8 31.8
L 28.6 31.8
L 28.6 38.2
L 27.8 38.2
L 25.5 34.5
Q 25.3 34.1, 25.0 33.6
Q 24.7 33.1, 24.6 32.9
L 24.6 38.2
L 23.8 38.2
L 23.8 31.8
L 24.8 31.8
" fill="#000000"></path>
<path class="atom-7" d="M 54.9 18.9
Q 55.5 19.1, 55.8 19.4
Q 56.1 19.8, 56.1 20.4
Q 56.1 21.2, 55.6 21.7
Q 55.0 22.2, 54.0 22.2
L 51.8 22.2
L 51.8 15.9
L 53.7 15.9
Q 54.8 15.9, 55.3 16.3
Q 55.9 16.7, 55.9 17.6
Q 55.9 18.5, 54.9 18.9
M 52.7 16.6
L 52.7 18.6
L 53.7 18.6
Q 54.3 18.6, 54.6 18.3
Q 55.0 18.1, 55.0 17.6
Q 55.0 16.6, 53.7 16.6
L 52.7 16.6
M 54.0 21.5
Q 54.6 21.5, 54.9 21.2
Q 55.2 20.9, 55.2 20.4
Q 55.2 19.8, 54.9 19.6
Q 54.5 19.3, 53.8 19.3
L 52.7 19.3
L 52.7 21.5
L 54.0 21.5
" fill="#000000"></path>
<path class="atom-7" d="M 57.6 17.6
L 57.7 18.2
Q 58.2 17.5, 59.0 17.5
Q 59.2 17.5, 59.6 17.6
L 59.4 18.4
Q 59.0 18.3, 58.8 18.3
Q 58.4 18.3, 58.2 18.4
Q 57.9 18.6, 57.7 18.9
L 57.7 22.2
L 56.9 22.2
L 56.9 17.6
L 57.6 17.6
" fill="#000000"></path>
</svg>