<svg baseprofile="full" height="86px" version="1.1" viewbox="0 0 132 86" width="132px" xml:space="preserve" xmlns="http://www.w3.org/2000/svg" xmlns:rdkit="http://www.rdkit.org/xml" xmlns:xlink="http://www.w3.org/1999/xlink">
<path class="bond-0 atom-0 atom-1" d="M 15.2,59.1 L 27.2,52.0" style="fill:none;fill-rule:evenodd;stroke:#000000;stroke-width:1.3px;stroke-linecap:butt;stroke-linejoin:miter;stroke-opacity:1"></path>
<path class="bond-1 atom-1 atom-2" d="M 27.2,52.0 L 39.4,58.9" style="fill:none;fill-rule:evenodd;stroke:#000000;stroke-width:1.3px;stroke-linecap:butt;stroke-linejoin:miter;stroke-opacity:1"></path>
<path class="bond-2 atom-2 atom-3" d="M 39.4,58.9 L 51.5,51.9" style="fill:none;fill-rule:evenodd;stroke:#000000;stroke-width:1.3px;stroke-linecap:butt;stroke-linejoin:miter;stroke-opacity:1"></path>
<path class="bond-3 atom-3 atom-4" d="M 51.5,51.9 L 62.6,60.4" style="fill:none;fill-rule:evenodd;stroke:#000000;stroke-width:1.3px;stroke-linecap:butt;stroke-linejoin:miter;stroke-opacity:1"></path>
<path class="bond-4 atom-4 atom-5" d="M 62.6,60.4 L 76.5,58.5" style="fill:none;fill-rule:evenodd;stroke:#000000;stroke-width:1.3px;stroke-linecap:butt;stroke-linejoin:miter;stroke-opacity:1"></path>
<path class="bond-5 atom-5 atom-6" d="M 76.5,58.5 L 81.0,66.2" style="fill:none;fill-rule:evenodd;stroke:#000000;stroke-width:1.3px;stroke-linecap:butt;stroke-linejoin:miter;stroke-opacity:1"></path>
<path class="bond-6 atom-6 atom-7" d="M 87.3,69.5 L 93.8,69.5" style="fill:none;fill-rule:evenodd;stroke:#000000;stroke-width:1.3px;stroke-linecap:butt;stroke-linejoin:miter;stroke-opacity:1"></path>
<path class="bond-6 atom-6 atom-7" d="M 87.3,71.6 L 93.8,71.6" style="fill:none;fill-rule:evenodd;stroke:#000000;stroke-width:1.3px;stroke-linecap:butt;stroke-linejoin:miter;stroke-opacity:1"></path>
<path class="bond-7 atom-7 atom-8" d="M 104.8,69.4 L 107.8,69.4" style="fill:none;fill-rule:evenodd;stroke:#000000;stroke-width:1.3px;stroke-linecap:butt;stroke-linejoin:miter;stroke-opacity:1"></path>
<path class="bond-7 atom-7 atom-8" d="M 104.8,71.5 L 107.8,71.5" style="fill:none;fill-rule:evenodd;stroke:#000000;stroke-width:1.3px;stroke-linecap:butt;stroke-linejoin:miter;stroke-opacity:1"></path>
<path class="bond-8 atom-5 atom-9" d="M 76.5,58.5 L 85.0,47.3" style="fill:none;fill-rule:evenodd;stroke:#000000;stroke-width:1.3px;stroke-linecap:butt;stroke-linejoin:miter;stroke-opacity:1"></path>
<path class="bond-9 atom-9 atom-10" d="M 85.0,47.3 L 83.1,33.5" style="fill:none;fill-rule:evenodd;stroke:#000000;stroke-width:1.3px;stroke-linecap:butt;stroke-linejoin:miter;stroke-opacity:1"></path>
<path class="bond-10 atom-10 atom-11" d="M 83.1,33.5 L 72.0,25.0" style="fill:none;fill-rule:evenodd;stroke:#000000;stroke-width:1.3px;stroke-linecap:butt;stroke-linejoin:miter;stroke-opacity:1"></path>
<path class="bond-11 atom-11 atom-12" d="M 72.0,25.0 L 58.1,26.9" style="fill:none;fill-rule:evenodd;stroke:#000000;stroke-width:1.3px;stroke-linecap:butt;stroke-linejoin:miter;stroke-opacity:1"></path>
<path class="bond-12 atom-12 atom-13" d="M 59.2,26.7 L 54.6,18.8" style="fill:none;fill-rule:evenodd;stroke:#000000;stroke-width:1.3px;stroke-linecap:butt;stroke-linejoin:miter;stroke-opacity:1"></path>
<path class="bond-12 atom-12 atom-13" d="M 57.4,27.8 L 52.8,19.8" style="fill:none;fill-rule:evenodd;stroke:#000000;stroke-width:1.3px;stroke-linecap:butt;stroke-linejoin:miter;stroke-opacity:1"></path>
<path class="bond-13 atom-12 atom-14" d="M 58.1,26.9 L 53.0,33.6" style="fill:none;fill-rule:evenodd;stroke:#000000;stroke-width:1.3px;stroke-linecap:butt;stroke-linejoin:miter;stroke-opacity:1"></path>
<path class="bond-14 atom-14 atom-3" d="M 50.2,42.6 L 51.5,51.9" style="fill:none;fill-rule:evenodd;stroke:#000000;stroke-width:1.3px;stroke-linecap:butt;stroke-linejoin:miter;stroke-opacity:1"></path>
<path d="M 26.6,52.4 L 27.2,52.0 L 27.9,52.4" style="fill:none;stroke:#000000;stroke-width:1.3px;stroke-linecap:butt;stroke-linejoin:miter;stroke-miterlimit:10;stroke-opacity:1;"></path>
<path d="M 38.8,58.6 L 39.4,58.9 L 40.0,58.6" style="fill:none;stroke:#000000;stroke-width:1.3px;stroke-linecap:butt;stroke-linejoin:miter;stroke-miterlimit:10;stroke-opacity:1;"></path>
<path d="M 62.1,59.9 L 62.6,60.4 L 63.3,60.3" style="fill:none;stroke:#000000;stroke-width:1.3px;stroke-linecap:butt;stroke-linejoin:miter;stroke-miterlimit:10;stroke-opacity:1;"></path>
<path d="M 84.6,47.9 L 85.0,47.3 L 84.9,46.6" style="fill:none;stroke:#000000;stroke-width:1.3px;stroke-linecap:butt;stroke-linejoin:miter;stroke-miterlimit:10;stroke-opacity:1;"></path>
<path d="M 83.2,34.2 L 83.1,33.5 L 82.6,33.0" style="fill:none;stroke:#000000;stroke-width:1.3px;stroke-linecap:butt;stroke-linejoin:miter;stroke-miterlimit:10;stroke-opacity:1;"></path>
<path d="M 72.5,25.4 L 72.0,25.0 L 71.3,25.1" style="fill:none;stroke:#000000;stroke-width:1.3px;stroke-linecap:butt;stroke-linejoin:miter;stroke-miterlimit:10;stroke-opacity:1;"></path>
<path d="M 58.8,26.8 L 58.1,26.9 L 57.8,27.2" style="fill:none;stroke:#000000;stroke-width:1.3px;stroke-linecap:butt;stroke-linejoin:miter;stroke-miterlimit:10;stroke-opacity:1;"></path>
<path class="atom-6" d="M 82.3 67.7
L 84.2 70.7
Q 84.4 71.0, 84.7 71.6
Q 85.0 72.1, 85.0 72.1
L 85.0 67.7
L 85.7 67.7
L 85.7 73.4
L 84.9 73.4
L 83.0 70.1
Q 82.7 69.7, 82.5 69.3
Q 82.2 68.9, 82.2 68.7
L 82.2 73.4
L 81.4 73.4
L 81.4 67.7
L 82.3 67.7
" fill="#000000"></path>
<path class="atom-7" d="M 96.3 67.7
L 98.2 70.7
Q 98.4 71.0, 98.7 71.5
Q 99.0 72.0, 99.0 72.1
L 99.0 67.7
L 99.7 67.7
L 99.7 73.3
L 98.9 73.3
L 97.0 70.1
Q 96.7 69.7, 96.5 69.2
Q 96.2 68.8, 96.2 68.7
L 96.2 73.3
L 95.4 73.3
L 95.4 67.7
L 96.3 67.7
" fill="#000000"></path>
<path class="atom-7" d="M 100.8 68.7
L 101.8 68.7
L 101.8 67.6
L 102.2 67.6
L 102.2 68.7
L 103.2 68.7
L 103.2 69.1
L 102.2 69.1
L 102.2 70.1
L 101.8 70.1
L 101.8 69.1
L 100.8 69.1
L 100.8 68.7
" fill="#000000"></path>
<path class="atom-8" d="M 110.3 67.6
L 112.2 70.6
Q 112.4 70.9, 112.7 71.4
Q 113.0 72.0, 113.0 72.0
L 113.0 67.6
L 113.7 67.6
L 113.7 73.3
L 112.9 73.3
L 111.0 70.0
Q 110.7 69.6, 110.5 69.2
Q 110.2 68.7, 110.2 68.6
L 110.2 73.3
L 109.4 73.3
L 109.4 67.6
L 110.3 67.6
" fill="#000000"></path>
<path class="atom-8" d="M 114.7 68.6
L 116.7 68.6
L 116.7 69.0
L 114.7 69.0
L 114.7 68.6
" fill="#000000"></path>
<path class="atom-13" d="M 48.4 14.8
Q 48.4 13.4, 49.1 12.7
Q 49.8 11.9, 51.0 11.9
Q 52.3 11.9, 53.0 12.7
Q 53.6 13.4, 53.6 14.8
Q 53.6 16.2, 52.9 17.0
Q 52.3 17.7, 51.0 17.7
Q 49.8 17.7, 49.1 17.0
Q 48.4 16.2, 48.4 14.8
M 51.0 17.1
Q 51.9 17.1, 52.4 16.5
Q 52.8 15.9, 52.8 14.8
Q 52.8 13.7, 52.4 13.1
Q 51.9 12.6, 51.0 12.6
Q 50.2 12.6, 49.7 13.1
Q 49.2 13.7, 49.2 14.8
Q 49.2 15.9, 49.7 16.5
Q 50.2 17.1, 51.0 17.1
" fill="#000000"></path>
<path class="atom-14" d="M 47.0 38.0
Q 47.0 36.7, 47.7 35.9
Q 48.4 35.2, 49.6 35.2
Q 50.9 35.2, 51.5 35.9
Q 52.2 36.7, 52.2 38.0
Q 52.2 39.4, 51.5 40.2
Q 50.9 41.0, 49.6 41.0
Q 48.4 41.0, 47.7 40.2
Q 47.0 39.4, 47.0 38.0
M 49.6 40.3
Q 50.5 40.3, 50.9 39.8
Q 51.4 39.2, 51.4 38.0
Q 51.4 36.9, 50.9 36.4
Q 50.5 35.8, 49.6 35.8
Q 48.7 35.8, 48.3 36.4
Q 47.8 36.9, 47.8 38.0
Q 47.8 39.2, 48.3 39.8
Q 48.7 40.3, 49.6 40.3
" fill="#000000"></path>
</svg>