<svg baseprofile="full" height="114px" version="1.1" viewbox="0 0 78 114" width="78px" xml:space="preserve" xmlns="http://www.w3.org/2000/svg" xmlns:rdkit="http://www.rdkit.org/xml" xmlns:xlink="http://www.w3.org/1999/xlink">
<path class="bond-0 atom-0 atom-1" d="M 17.7,30.0 L 28.4,39.1" style="fill:none;fill-rule:evenodd;stroke:#000000;stroke-width:1.3px;stroke-linecap:butt;stroke-linejoin:miter;stroke-opacity:1"></path>
<path class="bond-1 atom-1 atom-2" d="M 28.4,39.1 L 39.2,30.1" style="fill:none;fill-rule:evenodd;stroke:#000000;stroke-width:1.3px;stroke-linecap:butt;stroke-linejoin:miter;stroke-opacity:1"></path>
<path class="bond-2 atom-2 atom-3" d="M 39.2,30.1 L 37.6,20.7" style="fill:none;fill-rule:evenodd;stroke:#000000;stroke-width:1.3px;stroke-linecap:butt;stroke-linejoin:miter;stroke-opacity:1"></path>
<path class="bond-3 atom-1 atom-4" d="M 28.4,39.1 L 21.4,51.2" style="fill:none;fill-rule:evenodd;stroke:#000000;stroke-width:1.3px;stroke-linecap:butt;stroke-linejoin:miter;stroke-opacity:1"></path>
<path class="bond-4 atom-4 atom-5" d="M 21.4,51.2 L 31.7,51.2" style="fill:none;fill-rule:evenodd;stroke:#000000;stroke-width:1.3px;stroke-linecap:butt;stroke-linejoin:miter;stroke-opacity:1"></path>
<path class="bond-5 atom-5 atom-6" d="M 39.2,53.4 L 47.5,58.2" style="fill:none;fill-rule:evenodd;stroke:#000000;stroke-width:1.3px;stroke-linecap:butt;stroke-linejoin:miter;stroke-opacity:1"></path>
<path class="bond-6 atom-6 atom-7" d="M 47.5,58.2 L 47.5,72.2" style="fill:none;fill-rule:evenodd;stroke:#000000;stroke-width:1.3px;stroke-linecap:butt;stroke-linejoin:miter;stroke-opacity:1"></path>
<path class="bond-7 atom-7 atom-8" d="M 47.5,72.2 L 35.4,79.2" style="fill:none;fill-rule:evenodd;stroke:#000000;stroke-width:1.3px;stroke-linecap:butt;stroke-linejoin:miter;stroke-opacity:1"></path>
<path class="bond-7 atom-7 atom-8" d="M 47.5,74.6 L 37.5,80.4" style="fill:none;fill-rule:evenodd;stroke:#000000;stroke-width:1.3px;stroke-linecap:butt;stroke-linejoin:miter;stroke-opacity:1"></path>
<path class="bond-8 atom-8 atom-9" d="M 35.4,79.2 L 35.3,93.2" style="fill:none;fill-rule:evenodd;stroke:#000000;stroke-width:1.3px;stroke-linecap:butt;stroke-linejoin:miter;stroke-opacity:1"></path>
<path class="bond-9 atom-9 atom-10" d="M 35.3,93.2 L 47.4,100.2" style="fill:none;fill-rule:evenodd;stroke:#000000;stroke-width:1.3px;stroke-linecap:butt;stroke-linejoin:miter;stroke-opacity:1"></path>
<path class="bond-9 atom-9 atom-10" d="M 37.4,92.0 L 47.5,97.8" style="fill:none;fill-rule:evenodd;stroke:#000000;stroke-width:1.3px;stroke-linecap:butt;stroke-linejoin:miter;stroke-opacity:1"></path>
<path class="bond-10 atom-10 atom-11" d="M 47.4,100.2 L 59.6,93.2" style="fill:none;fill-rule:evenodd;stroke:#000000;stroke-width:1.3px;stroke-linecap:butt;stroke-linejoin:miter;stroke-opacity:1"></path>
<path class="bond-11 atom-11 atom-12" d="M 59.6,93.2 L 59.6,79.2" style="fill:none;fill-rule:evenodd;stroke:#000000;stroke-width:1.3px;stroke-linecap:butt;stroke-linejoin:miter;stroke-opacity:1"></path>
<path class="bond-11 atom-11 atom-12" d="M 57.5,92.0 L 57.5,80.5" style="fill:none;fill-rule:evenodd;stroke:#000000;stroke-width:1.3px;stroke-linecap:butt;stroke-linejoin:miter;stroke-opacity:1"></path>
<path class="bond-12 atom-5 atom-1" d="M 32.9,46.8 L 28.4,39.1" style="fill:none;fill-rule:evenodd;stroke:#000000;stroke-width:1.3px;stroke-linecap:butt;stroke-linejoin:miter;stroke-opacity:1"></path>
<path class="bond-13 atom-12 atom-7" d="M 59.6,79.2 L 47.5,72.2" style="fill:none;fill-rule:evenodd;stroke:#000000;stroke-width:1.3px;stroke-linecap:butt;stroke-linejoin:miter;stroke-opacity:1"></path>
<path d="M 38.7,30.5 L 39.2,30.1 L 39.1,29.6" style="fill:none;stroke:#000000;stroke-width:1.3px;stroke-linecap:butt;stroke-linejoin:miter;stroke-miterlimit:10;stroke-opacity:1;"></path>
<path d="M 21.8,50.6 L 21.4,51.2 L 21.9,51.2" style="fill:none;stroke:#000000;stroke-width:1.3px;stroke-linecap:butt;stroke-linejoin:miter;stroke-miterlimit:10;stroke-opacity:1;"></path>
<path d="M 47.1,58.0 L 47.5,58.2 L 47.5,58.9" style="fill:none;stroke:#000000;stroke-width:1.3px;stroke-linecap:butt;stroke-linejoin:miter;stroke-miterlimit:10;stroke-opacity:1;"></path>
<path d="M 36.0,78.8 L 35.4,79.2 L 35.4,79.9" style="fill:none;stroke:#000000;stroke-width:1.3px;stroke-linecap:butt;stroke-linejoin:miter;stroke-miterlimit:10;stroke-opacity:1;"></path>
<path d="M 35.3,92.5 L 35.3,93.2 L 35.9,93.5" style="fill:none;stroke:#000000;stroke-width:1.3px;stroke-linecap:butt;stroke-linejoin:miter;stroke-miterlimit:10;stroke-opacity:1;"></path>
<path d="M 46.8,99.9 L 47.4,100.2 L 48.1,99.9" style="fill:none;stroke:#000000;stroke-width:1.3px;stroke-linecap:butt;stroke-linejoin:miter;stroke-miterlimit:10;stroke-opacity:1;"></path>
<path d="M 59.0,93.6 L 59.6,93.2 L 59.6,92.5" style="fill:none;stroke:#000000;stroke-width:1.3px;stroke-linecap:butt;stroke-linejoin:miter;stroke-miterlimit:10;stroke-opacity:1;"></path>
<path d="M 59.6,79.9 L 59.6,79.2 L 59.0,78.9" style="fill:none;stroke:#000000;stroke-width:1.3px;stroke-linecap:butt;stroke-linejoin:miter;stroke-miterlimit:10;stroke-opacity:1;"></path>
<path class="atom-3" d="M 37.6 16.1
Q 38.2 16.3, 38.4 16.6
Q 38.7 17.0, 38.7 17.5
Q 38.7 18.2, 38.2 18.7
Q 37.7 19.1, 36.8 19.1
L 34.9 19.1
L 34.9 13.5
L 36.5 13.5
Q 37.5 13.5, 38.0 13.9
Q 38.5 14.2, 38.5 15.0
Q 38.5 15.8, 37.6 16.1
M 35.6 14.1
L 35.6 15.9
L 36.5 15.9
Q 37.1 15.9, 37.4 15.7
Q 37.7 15.4, 37.7 15.0
Q 37.7 14.1, 36.5 14.1
L 35.6 14.1
M 36.8 18.5
Q 37.3 18.5, 37.6 18.2
Q 37.9 18.0, 37.9 17.5
Q 37.9 17.0, 37.6 16.8
Q 37.3 16.5, 36.6 16.5
L 35.6 16.5
L 35.6 18.5
L 36.8 18.5
" fill="#000000"></path>
<path class="atom-3" d="M 40.0 15.0
L 40.1 15.6
Q 40.5 14.9, 41.2 14.9
Q 41.4 14.9, 41.8 15.0
L 41.6 15.7
Q 41.3 15.6, 41.1 15.6
Q 40.8 15.6, 40.5 15.7
Q 40.3 15.9, 40.1 16.2
L 40.1 19.1
L 39.4 19.1
L 39.4 15.0
L 40.0 15.0
" fill="#000000"></path>
<path class="atom-5" d="M 34.2 48.4
L 36.0 51.4
Q 36.2 51.7, 36.5 52.2
Q 36.8 52.7, 36.8 52.8
L 36.8 48.4
L 37.6 48.4
L 37.6 54.0
L 36.8 54.0
L 34.8 50.7
Q 34.6 50.4, 34.3 49.9
Q 34.1 49.5, 34.0 49.3
L 34.0 54.0
L 33.3 54.0
L 33.3 48.4
L 34.2 48.4
" fill="#000000"></path>
</svg>