<svg baseprofile="full" height="37px" version="1.1" viewbox="0 0 109 37" width="109px" xml:space="preserve" xmlns="http://www.w3.org/2000/svg" xmlns:rdkit="http://www.rdkit.org/xml" xmlns:xlink="http://www.w3.org/1999/xlink">
<path class="bond-0 atom-0 atom-1" d="M 16.6,16.6 L 28.8,23.6" style="fill:none;fill-rule:evenodd;stroke:#000000;stroke-width:1.3px;stroke-linecap:butt;stroke-linejoin:miter;stroke-opacity:1"></path>
<path class="bond-1 atom-1 atom-2" d="M 28.8,23.6 L 40.9,16.6" style="fill:none;fill-rule:evenodd;stroke:#000000;stroke-width:1.3px;stroke-linecap:butt;stroke-linejoin:miter;stroke-opacity:1"></path>
<path class="bond-2 atom-2 atom-3" d="M 40.9,16.6 L 53.0,23.6" style="fill:none;fill-rule:evenodd;stroke:#000000;stroke-width:1.3px;stroke-linecap:butt;stroke-linejoin:miter;stroke-opacity:1"></path>
<path class="bond-3 atom-3 atom-4" d="M 53.0,23.6 L 65.1,16.6" style="fill:none;fill-rule:evenodd;stroke:#000000;stroke-width:1.3px;stroke-linecap:butt;stroke-linejoin:miter;stroke-opacity:1"></path>
<path class="bond-3 atom-3 atom-4" d="M 53.0,21.2 L 64.1,14.8" style="fill:none;fill-rule:evenodd;stroke:#000000;stroke-width:1.3px;stroke-linecap:butt;stroke-linejoin:miter;stroke-opacity:1"></path>
<path class="bond-4 atom-4 atom-5" d="M 65.1,16.6 L 77.3,23.6" style="fill:none;fill-rule:evenodd;stroke:#000000;stroke-width:1.3px;stroke-linecap:butt;stroke-linejoin:miter;stroke-opacity:1"></path>
<path class="bond-5 atom-5 atom-6" d="M 77.3,23.6 L 85.2,19.0" style="fill:none;fill-rule:evenodd;stroke:#000000;stroke-width:1.3px;stroke-linecap:butt;stroke-linejoin:miter;stroke-opacity:1"></path>
<path class="bond-5 atom-5 atom-6" d="M 77.3,21.2 L 84.1,17.2" style="fill:none;fill-rule:evenodd;stroke:#000000;stroke-width:1.3px;stroke-linecap:butt;stroke-linejoin:miter;stroke-opacity:1"></path>
<path d="M 28.2,23.3 L 28.8,23.6 L 29.4,23.3" style="fill:none;stroke:#000000;stroke-width:1.3px;stroke-linecap:butt;stroke-linejoin:miter;stroke-miterlimit:10;stroke-opacity:1;"></path>
<path d="M 40.3,17.0 L 40.9,16.6 L 41.5,17.0" style="fill:none;stroke:#000000;stroke-width:1.3px;stroke-linecap:butt;stroke-linejoin:miter;stroke-miterlimit:10;stroke-opacity:1;"></path>
<path d="M 52.4,23.3 L 53.0,23.6 L 53.6,23.3" style="fill:none;stroke:#000000;stroke-width:1.3px;stroke-linecap:butt;stroke-linejoin:miter;stroke-miterlimit:10;stroke-opacity:1;"></path>
<path d="M 64.5,17.0 L 65.1,16.6 L 65.7,17.0" style="fill:none;stroke:#000000;stroke-width:1.3px;stroke-linecap:butt;stroke-linejoin:miter;stroke-miterlimit:10;stroke-opacity:1;"></path>
<path d="M 76.7,23.2 L 77.3,23.6 L 77.7,23.4" style="fill:none;stroke:#000000;stroke-width:1.3px;stroke-linecap:butt;stroke-linejoin:miter;stroke-miterlimit:10;stroke-opacity:1;"></path>
<path class="atom-6" d="M 86.2 15.7
Q 86.2 14.3, 86.9 13.6
Q 87.6 12.8, 88.8 12.8
Q 90.1 12.8, 90.8 13.6
Q 91.4 14.3, 91.4 15.7
Q 91.4 17.1, 90.8 17.8
Q 90.1 18.6, 88.8 18.6
Q 87.6 18.6, 86.9 17.8
Q 86.2 17.1, 86.2 15.7
M 88.8 18.0
Q 89.7 18.0, 90.2 17.4
Q 90.6 16.8, 90.6 15.7
Q 90.6 14.6, 90.2 14.0
Q 89.7 13.4, 88.8 13.4
Q 88.0 13.4, 87.5 14.0
Q 87.0 14.6, 87.0 15.7
Q 87.0 16.8, 87.5 17.4
Q 88.0 18.0, 88.8 18.0
" fill="#000000"></path>
</svg>