<svg baseprofile="full" height="106px" version="1.1" viewbox="0 0 96 106" width="96px" xml:space="preserve" xmlns="http://www.w3.org/2000/svg" xmlns:rdkit="http://www.rdkit.org/xml" xmlns:xlink="http://www.w3.org/1999/xlink">
<path class="bond-0 atom-0 atom-1" d="M 58.2,84.9 L 56.8,80.4" style="fill:none;fill-rule:evenodd;stroke:#000000;stroke-width:1.3px;stroke-linecap:butt;stroke-linejoin:miter;stroke-opacity:1"></path>
<path class="bond-1 atom-1 atom-2" d="M 58.6,71.6 L 63.6,64.7" style="fill:none;fill-rule:evenodd;stroke:#000000;stroke-width:1.3px;stroke-linecap:butt;stroke-linejoin:miter;stroke-opacity:1"></path>
<path class="bond-2 atom-2 atom-3" d="M 63.6,64.7 L 55.4,53.4" style="fill:none;fill-rule:evenodd;stroke:#000000;stroke-width:1.3px;stroke-linecap:butt;stroke-linejoin:miter;stroke-opacity:1"></path>
<path class="bond-2 atom-2 atom-3" d="M 61.0,64.7 L 54.6,55.8" style="fill:none;fill-rule:evenodd;stroke:#000000;stroke-width:1.3px;stroke-linecap:butt;stroke-linejoin:miter;stroke-opacity:1"></path>
<path class="bond-3 atom-3 atom-4" d="M 55.4,53.4 L 59.7,40.1" style="fill:none;fill-rule:evenodd;stroke:#000000;stroke-width:1.3px;stroke-linecap:butt;stroke-linejoin:miter;stroke-opacity:1"></path>
<path class="bond-4 atom-4 atom-5" d="M 59.7,40.1 L 50.3,29.6" style="fill:none;fill-rule:evenodd;stroke:#000000;stroke-width:1.3px;stroke-linecap:butt;stroke-linejoin:miter;stroke-opacity:1"></path>
<path class="bond-4 atom-4 atom-5" d="M 60.5,37.7 L 52.7,29.1" style="fill:none;fill-rule:evenodd;stroke:#000000;stroke-width:1.3px;stroke-linecap:butt;stroke-linejoin:miter;stroke-opacity:1"></path>
<path class="bond-5 atom-5 atom-6" d="M 50.3,29.6 L 54.7,16.3" style="fill:none;fill-rule:evenodd;stroke:#000000;stroke-width:1.3px;stroke-linecap:butt;stroke-linejoin:miter;stroke-opacity:1"></path>
<path class="bond-6 atom-6 atom-7" d="M 54.7,16.3 L 68.4,13.4" style="fill:none;fill-rule:evenodd;stroke:#000000;stroke-width:1.3px;stroke-linecap:butt;stroke-linejoin:miter;stroke-opacity:1"></path>
<path class="bond-6 atom-6 atom-7" d="M 56.3,18.1 L 67.6,15.7" style="fill:none;fill-rule:evenodd;stroke:#000000;stroke-width:1.3px;stroke-linecap:butt;stroke-linejoin:miter;stroke-opacity:1"></path>
<path class="bond-7 atom-7 atom-8" d="M 68.4,13.4 L 77.7,23.8" style="fill:none;fill-rule:evenodd;stroke:#000000;stroke-width:1.3px;stroke-linecap:butt;stroke-linejoin:miter;stroke-opacity:1"></path>
<path class="bond-8 atom-8 atom-9" d="M 77.7,23.8 L 73.4,37.2" style="fill:none;fill-rule:evenodd;stroke:#000000;stroke-width:1.3px;stroke-linecap:butt;stroke-linejoin:miter;stroke-opacity:1"></path>
<path class="bond-8 atom-8 atom-9" d="M 75.4,24.3 L 71.8,35.4" style="fill:none;fill-rule:evenodd;stroke:#000000;stroke-width:1.3px;stroke-linecap:butt;stroke-linejoin:miter;stroke-opacity:1"></path>
<path class="bond-9 atom-3 atom-10" d="M 55.4,53.4 L 42.0,57.7" style="fill:none;fill-rule:evenodd;stroke:#000000;stroke-width:1.3px;stroke-linecap:butt;stroke-linejoin:miter;stroke-opacity:1"></path>
<path class="bond-10 atom-10 atom-11" d="M 42.0,57.7 L 29.9,50.7" style="fill:none;fill-rule:evenodd;stroke:#000000;stroke-width:1.3px;stroke-linecap:butt;stroke-linejoin:miter;stroke-opacity:1"></path>
<path class="bond-10 atom-10 atom-11" d="M 39.9,58.9 L 29.9,53.1" style="fill:none;fill-rule:evenodd;stroke:#000000;stroke-width:1.3px;stroke-linecap:butt;stroke-linejoin:miter;stroke-opacity:1"></path>
<path class="bond-11 atom-11 atom-12" d="M 29.9,50.7 L 17.8,57.7" style="fill:none;fill-rule:evenodd;stroke:#000000;stroke-width:1.3px;stroke-linecap:butt;stroke-linejoin:miter;stroke-opacity:1"></path>
<path class="bond-12 atom-12 atom-13" d="M 17.8,57.7 L 17.8,71.7" style="fill:none;fill-rule:evenodd;stroke:#000000;stroke-width:1.3px;stroke-linecap:butt;stroke-linejoin:miter;stroke-opacity:1"></path>
<path class="bond-12 atom-12 atom-13" d="M 19.9,58.9 L 19.9,70.5" style="fill:none;fill-rule:evenodd;stroke:#000000;stroke-width:1.3px;stroke-linecap:butt;stroke-linejoin:miter;stroke-opacity:1"></path>
<path class="bond-13 atom-13 atom-14" d="M 17.8,71.7 L 29.9,78.7" style="fill:none;fill-rule:evenodd;stroke:#000000;stroke-width:1.3px;stroke-linecap:butt;stroke-linejoin:miter;stroke-opacity:1"></path>
<path class="bond-14 atom-14 atom-15" d="M 29.9,78.7 L 42.0,71.7" style="fill:none;fill-rule:evenodd;stroke:#000000;stroke-width:1.3px;stroke-linecap:butt;stroke-linejoin:miter;stroke-opacity:1"></path>
<path class="bond-14 atom-14 atom-15" d="M 29.9,76.2 L 39.9,70.5" style="fill:none;fill-rule:evenodd;stroke:#000000;stroke-width:1.3px;stroke-linecap:butt;stroke-linejoin:miter;stroke-opacity:1"></path>
<path class="bond-15 atom-15 atom-1" d="M 42.0,71.7 L 51.6,74.8" style="fill:none;fill-rule:evenodd;stroke:#000000;stroke-width:1.3px;stroke-linecap:butt;stroke-linejoin:miter;stroke-opacity:1"></path>
<path class="bond-16 atom-9 atom-4" d="M 73.4,37.2 L 59.7,40.1" style="fill:none;fill-rule:evenodd;stroke:#000000;stroke-width:1.3px;stroke-linecap:butt;stroke-linejoin:miter;stroke-opacity:1"></path>
<path class="bond-17 atom-15 atom-10" d="M 42.0,71.7 L 42.0,57.7" style="fill:none;fill-rule:evenodd;stroke:#000000;stroke-width:1.3px;stroke-linecap:butt;stroke-linejoin:miter;stroke-opacity:1"></path>
<path d="M 63.3,65.0 L 63.6,64.7 L 63.2,64.1" style="fill:none;stroke:#000000;stroke-width:1.3px;stroke-linecap:butt;stroke-linejoin:miter;stroke-miterlimit:10;stroke-opacity:1;"></path>
<path d="M 50.8,30.2 L 50.3,29.6 L 50.6,29.0" style="fill:none;stroke:#000000;stroke-width:1.3px;stroke-linecap:butt;stroke-linejoin:miter;stroke-miterlimit:10;stroke-opacity:1;"></path>
<path d="M 54.5,17.0 L 54.7,16.3 L 55.4,16.2" style="fill:none;stroke:#000000;stroke-width:1.3px;stroke-linecap:butt;stroke-linejoin:miter;stroke-miterlimit:10;stroke-opacity:1;"></path>
<path d="M 67.7,13.6 L 68.4,13.4 L 68.8,14.0" style="fill:none;stroke:#000000;stroke-width:1.3px;stroke-linecap:butt;stroke-linejoin:miter;stroke-miterlimit:10;stroke-opacity:1;"></path>
<path d="M 77.3,23.3 L 77.7,23.8 L 77.5,24.5" style="fill:none;stroke:#000000;stroke-width:1.3px;stroke-linecap:butt;stroke-linejoin:miter;stroke-miterlimit:10;stroke-opacity:1;"></path>
<path d="M 73.6,36.5 L 73.4,37.2 L 72.7,37.3" style="fill:none;stroke:#000000;stroke-width:1.3px;stroke-linecap:butt;stroke-linejoin:miter;stroke-miterlimit:10;stroke-opacity:1;"></path>
<path d="M 30.5,51.0 L 29.9,50.7 L 29.3,51.0" style="fill:none;stroke:#000000;stroke-width:1.3px;stroke-linecap:butt;stroke-linejoin:miter;stroke-miterlimit:10;stroke-opacity:1;"></path>
<path d="M 18.4,57.3 L 17.8,57.7 L 17.8,58.4" style="fill:none;stroke:#000000;stroke-width:1.3px;stroke-linecap:butt;stroke-linejoin:miter;stroke-miterlimit:10;stroke-opacity:1;"></path>
<path d="M 17.8,71.0 L 17.8,71.7 L 18.4,72.0" style="fill:none;stroke:#000000;stroke-width:1.3px;stroke-linecap:butt;stroke-linejoin:miter;stroke-miterlimit:10;stroke-opacity:1;"></path>
<path d="M 29.3,78.3 L 29.9,78.7 L 30.5,78.3" style="fill:none;stroke:#000000;stroke-width:1.3px;stroke-linecap:butt;stroke-linejoin:miter;stroke-miterlimit:10;stroke-opacity:1;"></path>
<path class="atom-0" d="M 57.1 89.4
Q 57.1 88.0, 57.7 87.2
Q 58.4 86.5, 59.7 86.5
Q 60.9 86.5, 61.6 87.2
Q 62.3 88.0, 62.3 89.4
Q 62.3 90.7, 61.6 91.5
Q 60.9 92.3, 59.7 92.3
Q 58.4 92.3, 57.7 91.5
Q 57.1 90.7, 57.1 89.4
M 59.7 91.6
Q 60.5 91.6, 61.0 91.1
Q 61.5 90.5, 61.5 89.4
Q 61.5 88.2, 61.0 87.7
Q 60.5 87.1, 59.7 87.1
Q 58.8 87.1, 58.3 87.7
Q 57.9 88.2, 57.9 89.4
Q 57.9 90.5, 58.3 91.1
Q 58.8 91.6, 59.7 91.6
" fill="#000000"></path>
<path class="atom-0" d="M 63.1 86.5
L 63.9 86.5
L 63.9 88.9
L 66.8 88.9
L 66.8 86.5
L 67.6 86.5
L 67.6 92.2
L 66.8 92.2
L 66.8 89.6
L 63.9 89.6
L 63.9 92.2
L 63.1 92.2
L 63.1 86.5
" fill="#000000"></path>
<path class="atom-1" d="M 54.1 73.2
L 55.9 76.2
Q 56.1 76.5, 56.4 77.0
Q 56.7 77.6, 56.7 77.6
L 56.7 73.2
L 57.5 73.2
L 57.5 78.9
L 56.7 78.9
L 54.7 75.6
Q 54.5 75.2, 54.2 74.7
Q 54.0 74.3, 53.9 74.2
L 53.9 78.9
L 53.2 78.9
L 53.2 73.2
L 54.1 73.2
" fill="#000000"></path>
</svg>