<svg baseprofile="full" height="74px" version="1.1" viewbox="0 0 109 74" width="109px" xml:space="preserve" xmlns="http://www.w3.org/2000/svg" xmlns:rdkit="http://www.rdkit.org/xml" xmlns:xlink="http://www.w3.org/1999/xlink">
<path class="bond-0 atom-0 atom-1" d="M 16.2,37.5 L 28.3,30.5" style="fill:none;fill-rule:evenodd;stroke:#000000;stroke-width:1.3px;stroke-linecap:butt;stroke-linejoin:miter;stroke-opacity:1"></path>
<path class="bond-1 atom-1 atom-2" d="M 29.3,31.1 L 29.4,21.1" style="fill:none;fill-rule:evenodd;stroke:#000000;stroke-width:1.3px;stroke-linecap:butt;stroke-linejoin:miter;stroke-opacity:1"></path>
<path class="bond-1 atom-1 atom-2" d="M 27.2,31.1 L 27.3,21.1" style="fill:none;fill-rule:evenodd;stroke:#000000;stroke-width:1.3px;stroke-linecap:butt;stroke-linejoin:miter;stroke-opacity:1"></path>
<path class="bond-2 atom-1 atom-3" d="M 28.3,30.5 L 40.4,37.5" style="fill:none;fill-rule:evenodd;stroke:#000000;stroke-width:1.3px;stroke-linecap:butt;stroke-linejoin:miter;stroke-opacity:1"></path>
<path class="bond-3 atom-3 atom-4" d="M 40.4,37.5 L 52.5,30.5" style="fill:none;fill-rule:evenodd;stroke:#000000;stroke-width:1.3px;stroke-linecap:butt;stroke-linejoin:miter;stroke-opacity:1"></path>
<path class="bond-4 atom-4 atom-5" d="M 52.5,30.5 L 64.7,37.6" style="fill:none;fill-rule:evenodd;stroke:#000000;stroke-width:1.3px;stroke-linecap:butt;stroke-linejoin:miter;stroke-opacity:1"></path>
<path class="bond-5 atom-5 atom-6" d="M 64.7,37.6 L 70.4,24.8" style="fill:none;fill-rule:evenodd;stroke:#000000;stroke-width:1.3px;stroke-linecap:butt;stroke-linejoin:miter;stroke-opacity:1"></path>
<path class="bond-6 atom-5 atom-7" d="M 64.7,37.6 L 56.4,48.9" style="fill:none;fill-rule:evenodd;stroke:#000000;stroke-width:1.3px;stroke-linecap:butt;stroke-linejoin:miter;stroke-opacity:1"></path>
<path class="bond-7 atom-7 atom-8" d="M 57.2,47.8 L 46.6,47.8" style="fill:none;fill-rule:evenodd;stroke:#000000;stroke-width:1.3px;stroke-linecap:butt;stroke-linejoin:miter;stroke-opacity:1"></path>
<path class="bond-7 atom-7 atom-8" d="M 57.2,49.9 L 46.6,49.9" style="fill:none;fill-rule:evenodd;stroke:#000000;stroke-width:1.3px;stroke-linecap:butt;stroke-linejoin:miter;stroke-opacity:1"></path>
<path class="bond-8 atom-7 atom-9" d="M 56.4,48.9 L 64.6,60.2" style="fill:none;fill-rule:evenodd;stroke:#000000;stroke-width:1.3px;stroke-linecap:butt;stroke-linejoin:miter;stroke-opacity:1"></path>
<path class="bond-9 atom-9 atom-10" d="M 64.6,60.2 L 78.0,55.9" style="fill:none;fill-rule:evenodd;stroke:#000000;stroke-width:1.3px;stroke-linecap:butt;stroke-linejoin:miter;stroke-opacity:1"></path>
<path class="bond-10 atom-10 atom-11" d="M 78.0,55.9 L 78.0,41.9" style="fill:none;fill-rule:evenodd;stroke:#000000;stroke-width:1.3px;stroke-linecap:butt;stroke-linejoin:miter;stroke-opacity:1"></path>
<path class="bond-11 atom-11 atom-12" d="M 78.0,43.2 L 85.7,37.6" style="fill:none;fill-rule:evenodd;stroke:#000000;stroke-width:1.3px;stroke-linecap:butt;stroke-linejoin:miter;stroke-opacity:1"></path>
<path class="bond-11 atom-11 atom-12" d="M 76.7,41.5 L 84.5,35.9" style="fill:none;fill-rule:evenodd;stroke:#000000;stroke-width:1.3px;stroke-linecap:butt;stroke-linejoin:miter;stroke-opacity:1"></path>
<path class="bond-12 atom-11 atom-5" d="M 78.0,41.9 L 64.7,37.6" style="fill:none;fill-rule:evenodd;stroke:#000000;stroke-width:1.3px;stroke-linecap:butt;stroke-linejoin:miter;stroke-opacity:1"></path>
<path d="M 27.7,30.9 L 28.3,30.5 L 28.9,30.9" style="fill:none;stroke:#000000;stroke-width:1.3px;stroke-linecap:butt;stroke-linejoin:miter;stroke-miterlimit:10;stroke-opacity:1;"></path>
<path d="M 39.8,37.2 L 40.4,37.5 L 41.0,37.2" style="fill:none;stroke:#000000;stroke-width:1.3px;stroke-linecap:butt;stroke-linejoin:miter;stroke-miterlimit:10;stroke-opacity:1;"></path>
<path d="M 51.9,30.9 L 52.5,30.5 L 53.2,30.9" style="fill:none;stroke:#000000;stroke-width:1.3px;stroke-linecap:butt;stroke-linejoin:miter;stroke-miterlimit:10;stroke-opacity:1;"></path>
<path d="M 56.8,48.3 L 56.4,48.9 L 56.8,49.4" style="fill:none;stroke:#000000;stroke-width:1.3px;stroke-linecap:butt;stroke-linejoin:miter;stroke-miterlimit:10;stroke-opacity:1;"></path>
<path d="M 64.2,59.6 L 64.6,60.2 L 65.3,60.0" style="fill:none;stroke:#000000;stroke-width:1.3px;stroke-linecap:butt;stroke-linejoin:miter;stroke-miterlimit:10;stroke-opacity:1;"></path>
<path d="M 77.3,56.1 L 78.0,55.9 L 78.0,55.2" style="fill:none;stroke:#000000;stroke-width:1.3px;stroke-linecap:butt;stroke-linejoin:miter;stroke-miterlimit:10;stroke-opacity:1;"></path>
<path d="M 78.0,42.6 L 78.0,41.9 L 77.3,41.7" style="fill:none;stroke:#000000;stroke-width:1.3px;stroke-linecap:butt;stroke-linejoin:miter;stroke-miterlimit:10;stroke-opacity:1;"></path>
<path class="atom-2" d="M 25.7 16.5
Q 25.7 15.2, 26.4 14.4
Q 27.1 13.7, 28.3 13.7
Q 29.6 13.7, 30.2 14.4
Q 30.9 15.2, 30.9 16.5
Q 30.9 17.9, 30.2 18.7
Q 29.6 19.5, 28.3 19.5
Q 27.1 19.5, 26.4 18.7
Q 25.7 17.9, 25.7 16.5
M 28.3 18.8
Q 29.2 18.8, 29.6 18.3
Q 30.1 17.7, 30.1 16.5
Q 30.1 15.4, 29.6 14.9
Q 29.2 14.3, 28.3 14.3
Q 27.5 14.3, 27.0 14.9
Q 26.5 15.4, 26.5 16.5
Q 26.5 17.7, 27.0 18.3
Q 27.5 18.8, 28.3 18.8
" fill="#000000"></path>
<path class="atom-8" d="M 39.8 48.9
Q 39.8 47.5, 40.5 46.8
Q 41.2 46.0, 42.4 46.0
Q 43.7 46.0, 44.4 46.8
Q 45.0 47.5, 45.0 48.9
Q 45.0 50.3, 44.3 51.0
Q 43.7 51.8, 42.4 51.8
Q 41.2 51.8, 40.5 51.0
Q 39.8 50.3, 39.8 48.9
M 42.4 51.2
Q 43.3 51.2, 43.8 50.6
Q 44.2 50.0, 44.2 48.9
Q 44.2 47.8, 43.8 47.2
Q 43.3 46.6, 42.4 46.6
Q 41.6 46.6, 41.1 47.2
Q 40.6 47.8, 40.6 48.9
Q 40.6 50.0, 41.1 50.6
Q 41.6 51.2, 42.4 51.2
" fill="#000000"></path>
<path class="atom-12" d="M 86.7 33.7
Q 86.7 32.3, 87.4 31.6
Q 88.1 30.8, 89.3 30.8
Q 90.6 30.8, 91.2 31.6
Q 91.9 32.3, 91.9 33.7
Q 91.9 35.1, 91.2 35.9
Q 90.5 36.6, 89.3 36.6
Q 88.1 36.6, 87.4 35.9
Q 86.7 35.1, 86.7 33.7
M 89.3 36.0
Q 90.2 36.0, 90.6 35.4
Q 91.1 34.8, 91.1 33.7
Q 91.1 32.6, 90.6 32.0
Q 90.2 31.5, 89.3 31.5
Q 88.4 31.5, 88.0 32.0
Q 87.5 32.6, 87.5 33.7
Q 87.5 34.8, 88.0 35.4
Q 88.4 36.0, 89.3 36.0
" fill="#000000"></path>
</svg>