<svg baseprofile="full" height="53px" version="1.1" viewbox="0 0 88 53" width="88px" xml:space="preserve" xmlns="http://www.w3.org/2000/svg" xmlns:rdkit="http://www.rdkit.org/xml" xmlns:xlink="http://www.w3.org/1999/xlink">
<path class="bond-0 atom-0 atom-1" d="M 17.5,33.4 L 33.0,29.2" style="fill:none;fill-rule:evenodd;stroke:#000000;stroke-width:1.3px;stroke-linecap:butt;stroke-linejoin:miter;stroke-opacity:1"></path>
<path class="bond-0 atom-0 atom-1" d="M 18.0,35.6 L 33.6,31.4" style="fill:none;fill-rule:evenodd;stroke:#000000;stroke-width:1.3px;stroke-linecap:butt;stroke-linejoin:miter;stroke-opacity:1"></path>
<path class="bond-1 atom-1 atom-2" d="M 32.2,30.6 L 45.2,38.0" style="fill:none;fill-rule:evenodd;stroke:#000000;stroke-width:1.3px;stroke-linecap:butt;stroke-linejoin:miter;stroke-opacity:1"></path>
<path class="bond-2 atom-2 atom-3" d="M 45.2,38.0 L 52.7,25.0" style="fill:none;fill-rule:evenodd;stroke:#000000;stroke-width:1.3px;stroke-linecap:butt;stroke-linejoin:miter;stroke-opacity:1"></path>
<path class="bond-3 atom-3 atom-4" d="M 51.9,26.4 L 62.9,23.4" style="fill:none;fill-rule:evenodd;stroke:#000000;stroke-width:1.3px;stroke-linecap:butt;stroke-linejoin:miter;stroke-opacity:1"></path>
<path class="bond-3 atom-3 atom-4" d="M 51.3,24.2 L 62.3,21.3" style="fill:none;fill-rule:evenodd;stroke:#000000;stroke-width:1.3px;stroke-linecap:butt;stroke-linejoin:miter;stroke-opacity:1"></path>
<path class="bond-4 atom-3 atom-5" d="M 52.7,25.0 L 44.3,20.2" style="fill:none;fill-rule:evenodd;stroke:#000000;stroke-width:1.3px;stroke-linecap:butt;stroke-linejoin:miter;stroke-opacity:1"></path>
<path class="bond-5 atom-5 atom-1" d="M 36.8,22.6 L 32.2,30.6" style="fill:none;fill-rule:evenodd;stroke:#000000;stroke-width:1.3px;stroke-linecap:butt;stroke-linejoin:miter;stroke-opacity:1"></path>
<path d="M 32.9,30.9 L 32.2,30.6 L 32.5,30.2" style="fill:none;stroke:#000000;stroke-width:1.3px;stroke-linecap:butt;stroke-linejoin:miter;stroke-miterlimit:10;stroke-opacity:1;"></path>
<path d="M 44.6,37.7 L 45.2,38.0 L 45.6,37.4" style="fill:none;stroke:#000000;stroke-width:1.3px;stroke-linecap:butt;stroke-linejoin:miter;stroke-miterlimit:10;stroke-opacity:1;"></path>
<path d="M 52.3,25.7 L 52.7,25.0 L 52.3,24.8" style="fill:none;stroke:#000000;stroke-width:1.3px;stroke-linecap:butt;stroke-linejoin:miter;stroke-miterlimit:10;stroke-opacity:1;"></path>
<path class="atom-4" d="M 64.3 21.1
Q 64.3 19.6, 65.0 18.7
Q 65.8 17.9, 67.2 17.9
Q 68.6 17.9, 69.4 18.7
Q 70.1 19.6, 70.1 21.1
Q 70.1 22.7, 69.3 23.5
Q 68.6 24.4, 67.2 24.4
Q 65.8 24.4, 65.0 23.5
Q 64.3 22.7, 64.3 21.1
M 67.2 23.7
Q 68.2 23.7, 68.7 23.0
Q 69.2 22.4, 69.2 21.1
Q 69.2 19.9, 68.7 19.2
Q 68.2 18.6, 67.2 18.6
Q 66.2 18.6, 65.7 19.2
Q 65.2 19.9, 65.2 21.1
Q 65.2 22.4, 65.7 23.0
Q 66.2 23.7, 67.2 23.7
" fill="#000000"></path>
<path class="atom-5" d="M 36.8 17.6
Q 36.8 16.0, 37.5 15.2
Q 38.3 14.3, 39.7 14.3
Q 41.1 14.3, 41.9 15.2
Q 42.6 16.0, 42.6 17.6
Q 42.6 19.1, 41.8 20.0
Q 41.1 20.9, 39.7 20.9
Q 38.3 20.9, 37.5 20.0
Q 36.8 19.1, 36.8 17.6
M 39.7 20.2
Q 40.7 20.2, 41.2 19.5
Q 41.7 18.9, 41.7 17.6
Q 41.7 16.3, 41.2 15.7
Q 40.7 15.1, 39.7 15.1
Q 38.7 15.1, 38.2 15.7
Q 37.7 16.3, 37.7 17.6
Q 37.7 18.9, 38.2 19.5
Q 38.7 20.2, 39.7 20.2
" fill="#000000"></path>
</svg>