<svg baseprofile="full" height="80px" version="1.1" viewbox="0 0 116 80" width="116px" xml:space="preserve" xmlns="http://www.w3.org/2000/svg" xmlns:rdkit="http://www.rdkit.org/xml" xmlns:xlink="http://www.w3.org/1999/xlink">
<path class="bond-0 atom-0 atom-1" d="M 25.3,48.6 L 36.4,49.8" style="fill:none;fill-rule:evenodd;stroke:#000000;stroke-width:1.3px;stroke-linecap:butt;stroke-linejoin:miter;stroke-opacity:1"></path>
<path class="bond-0 atom-0 atom-1" d="M 25.1,50.8 L 36.2,52.0" style="fill:none;fill-rule:evenodd;stroke:#000000;stroke-width:1.3px;stroke-linecap:butt;stroke-linejoin:miter;stroke-opacity:1"></path>
<path class="bond-1 atom-1 atom-2" d="M 35.5,50.8 L 43.0,63.8" style="fill:none;fill-rule:evenodd;stroke:#000000;stroke-width:1.3px;stroke-linecap:butt;stroke-linejoin:miter;stroke-opacity:1"></path>
<path class="bond-2 atom-2 atom-3" d="M 43.0,63.8 L 57.7,60.7" style="fill:none;fill-rule:evenodd;stroke:#000000;stroke-width:1.3px;stroke-linecap:butt;stroke-linejoin:miter;stroke-opacity:1"></path>
<path class="bond-3 atom-3 atom-4" d="M 57.7,60.7 L 59.3,45.8" style="fill:none;fill-rule:evenodd;stroke:#000000;stroke-width:1.3px;stroke-linecap:butt;stroke-linejoin:miter;stroke-opacity:1"></path>
<path class="bond-4 atom-4 atom-5" d="M 59.3,45.8 L 72.3,38.3" style="fill:none;fill-rule:evenodd;stroke:#000000;stroke-width:1.3px;stroke-linecap:butt;stroke-linejoin:miter;stroke-opacity:1"></path>
<path class="bond-5 atom-5 atom-6" d="M 72.3,38.3 L 85.2,45.8" style="fill:none;fill-rule:evenodd;stroke:#000000;stroke-width:1.3px;stroke-linecap:butt;stroke-linejoin:miter;stroke-opacity:1"></path>
<path class="bond-5 atom-5 atom-6" d="M 74.5,37.0 L 85.2,43.2" style="fill:none;fill-rule:evenodd;stroke:#000000;stroke-width:1.3px;stroke-linecap:butt;stroke-linejoin:miter;stroke-opacity:1"></path>
<path class="bond-6 atom-6 atom-7" d="M 85.2,45.8 L 98.2,38.3" style="fill:none;fill-rule:evenodd;stroke:#000000;stroke-width:1.3px;stroke-linecap:butt;stroke-linejoin:miter;stroke-opacity:1"></path>
<path class="bond-7 atom-7 atom-8" d="M 98.2,38.3 L 98.2,23.3" style="fill:none;fill-rule:evenodd;stroke:#000000;stroke-width:1.3px;stroke-linecap:butt;stroke-linejoin:miter;stroke-opacity:1"></path>
<path class="bond-7 atom-7 atom-8" d="M 96.0,37.0 L 96.0,24.6" style="fill:none;fill-rule:evenodd;stroke:#000000;stroke-width:1.3px;stroke-linecap:butt;stroke-linejoin:miter;stroke-opacity:1"></path>
<path class="bond-8 atom-8 atom-9" d="M 98.2,23.3 L 85.3,15.8" style="fill:none;fill-rule:evenodd;stroke:#000000;stroke-width:1.3px;stroke-linecap:butt;stroke-linejoin:miter;stroke-opacity:1"></path>
<path class="bond-9 atom-9 atom-10" d="M 85.3,15.8 L 72.3,23.3" style="fill:none;fill-rule:evenodd;stroke:#000000;stroke-width:1.3px;stroke-linecap:butt;stroke-linejoin:miter;stroke-opacity:1"></path>
<path class="bond-9 atom-9 atom-10" d="M 85.3,18.4 L 74.5,24.6" style="fill:none;fill-rule:evenodd;stroke:#000000;stroke-width:1.3px;stroke-linecap:butt;stroke-linejoin:miter;stroke-opacity:1"></path>
<path class="bond-10 atom-4 atom-11" d="M 59.3,45.8 L 45.6,39.7" style="fill:none;fill-rule:evenodd;stroke:#000000;stroke-width:1.3px;stroke-linecap:butt;stroke-linejoin:miter;stroke-opacity:1"></path>
<path class="bond-10 atom-4 atom-11" d="M 56.8,47.2 L 46.1,42.4" style="fill:none;fill-rule:evenodd;stroke:#000000;stroke-width:1.3px;stroke-linecap:butt;stroke-linejoin:miter;stroke-opacity:1"></path>
<path class="bond-11 atom-11 atom-1" d="M 45.6,39.7 L 35.5,50.8" style="fill:none;fill-rule:evenodd;stroke:#000000;stroke-width:1.3px;stroke-linecap:butt;stroke-linejoin:miter;stroke-opacity:1"></path>
<path class="bond-12 atom-10 atom-5" d="M 72.3,23.3 L 72.3,38.3" style="fill:none;fill-rule:evenodd;stroke:#000000;stroke-width:1.3px;stroke-linecap:butt;stroke-linejoin:miter;stroke-opacity:1"></path>
<path d="M 35.9,51.4 L 35.5,50.8 L 36.0,50.2" style="fill:none;stroke:#000000;stroke-width:1.3px;stroke-linecap:butt;stroke-linejoin:miter;stroke-miterlimit:10;stroke-opacity:1;"></path>
<path d="M 42.6,63.1 L 43.0,63.8 L 43.7,63.6" style="fill:none;stroke:#000000;stroke-width:1.3px;stroke-linecap:butt;stroke-linejoin:miter;stroke-miterlimit:10;stroke-opacity:1;"></path>
<path d="M 56.9,60.8 L 57.7,60.7 L 57.7,59.9" style="fill:none;stroke:#000000;stroke-width:1.3px;stroke-linecap:butt;stroke-linejoin:miter;stroke-miterlimit:10;stroke-opacity:1;"></path>
<path d="M 84.6,45.4 L 85.2,45.8 L 85.9,45.4" style="fill:none;stroke:#000000;stroke-width:1.3px;stroke-linecap:butt;stroke-linejoin:miter;stroke-miterlimit:10;stroke-opacity:1;"></path>
<path d="M 97.6,38.7 L 98.2,38.3 L 98.2,37.6" style="fill:none;stroke:#000000;stroke-width:1.3px;stroke-linecap:butt;stroke-linejoin:miter;stroke-miterlimit:10;stroke-opacity:1;"></path>
<path d="M 98.2,24.1 L 98.2,23.3 L 97.6,22.9" style="fill:none;stroke:#000000;stroke-width:1.3px;stroke-linecap:butt;stroke-linejoin:miter;stroke-miterlimit:10;stroke-opacity:1;"></path>
<path d="M 85.9,16.2 L 85.3,15.8 L 84.6,16.2" style="fill:none;stroke:#000000;stroke-width:1.3px;stroke-linecap:butt;stroke-linejoin:miter;stroke-miterlimit:10;stroke-opacity:1;"></path>
<path d="M 72.9,22.9 L 72.3,23.3 L 72.3,24.0" style="fill:none;stroke:#000000;stroke-width:1.3px;stroke-linecap:butt;stroke-linejoin:miter;stroke-miterlimit:10;stroke-opacity:1;"></path>
<path d="M 46.2,40.0 L 45.6,39.7 L 45.1,40.2" style="fill:none;stroke:#000000;stroke-width:1.3px;stroke-linecap:butt;stroke-linejoin:miter;stroke-miterlimit:10;stroke-opacity:1;"></path>
<path class="atom-0" d="M 17.7 49.2
Q 17.7 47.7, 18.4 46.8
Q 19.2 46.0, 20.6 46.0
Q 22.0 46.0, 22.8 46.8
Q 23.5 47.7, 23.5 49.2
Q 23.5 50.8, 22.8 51.7
Q 22.0 52.5, 20.6 52.5
Q 19.2 52.5, 18.4 51.7
Q 17.7 50.8, 17.7 49.2
M 20.6 51.8
Q 21.6 51.8, 22.1 51.2
Q 22.6 50.5, 22.6 49.2
Q 22.6 48.0, 22.1 47.3
Q 21.6 46.7, 20.6 46.7
Q 19.6 46.7, 19.1 47.3
Q 18.6 48.0, 18.6 49.2
Q 18.6 50.5, 19.1 51.2
Q 19.6 51.8, 20.6 51.8
" fill="#000000"></path>
</svg>